<svg width="109" height="112" viewBox="0 0 109 112" fill="none" xmlns="http://www.w3.org/2000/svg">
<g id="Group 1">
<path id="h" d="M25.472 16.968C27.824 16.968 29.9147 17.4907 31.744 18.536C33.5733 19.544 34.992 21.056 36 23.072C37.0453 25.0507 37.568 27.44 37.568 30.24V48.44H29.728V31.304C29.728 28.84 29.112 26.9547 27.88 25.648C26.648 24.304 24.968 23.632 22.84 23.632C20.6747 23.632 18.9573 24.304 17.688 25.648C16.456 26.9547 15.84 28.84 15.84 31.304V48.44H8V7H15.84V21.28C16.848 19.936 18.192 18.8907 19.872 18.144C21.552 17.36 23.4187 16.968 25.472 16.968Z" fill="#2A2E45"/>
<path id="Vector 1" d="M4 57.5L54.5 7L105 57.5L54.5 32.5L12 67.5V107H46V78C46 78 61.2369 78 71 78" stroke="#2A2E45" stroke-width="9"/>
</g>
</svg>
